# xmcd CD database file
#
# Track frame offsets:
#	150
#	15670
#	31943
#	44755
#	64033
#	80165
#	102305
#	117798
#	133288
#	151783
#	169608
#	187303
#
# Disc length: 2710 seconds
#
# Revision: 1
# Processed by: cddbd v1.5PL3 Copyright (c) Steve Scherf et al.
# Submitted via: CDex 1.50beta8
#
DISCID=a30a940c
DTITLE=De+LAX - Sensation
DYEAR=1988
DGENRE=Rock
TTITLE0=突然 炎のごとく
TTITLE1=緑の光線
TTITLE2=熱帯LADY
TTITLE3=Misty Memory
TTITLE4=Sensation
TTITLE5=ダイヤモンドの夜
TTITLE6=War Dance
TTITLE7=Be My Angel
TTITLE8=真珠のヴィーナス
TTITLE9=G.N.A
TTITLE10=Serious Mood
TTITLE11=Blue Heart Lover
EXTD=YEAR: 1988
EXTT0=
EXTT1=
EXTT2=
EXTT3=
EXTT4=
EXTT5=
EXTT6=
EXTT7=
EXTT8=
EXTT9=
EXTT10=
EXTT11=
PLAYORDER=
